<svg width="24" height="24" viewBox="0 0 24 24" fill="#1b2838" xmlns="http://www.w3.org/2000/svg">
<path fill-rule="evenodd" clip-rule="evenodd" d="M3.48136 11.1905L3.47709 11.195L3.47656 14.825L7.66627 16.195C7.92627 17.485 9.07628 18.465 10.4463 18.465C12.0063 18.465 13.2763 17.195 13.2763 15.635V15.505L16.6763 13.075H16.7563C18.8363 13.075 20.5263 11.385 20.5263 9.30497C20.5263 7.22497 18.8363 5.53497 16.7563 5.53497C14.6763 5.53497 12.9763 7.22497 12.9763 9.30497V9.35497L10.6063 12.815L10.4463 12.805C9.85628 12.805 9.30627 12.985 8.85627 13.295L3.47709 11.195C3.47709 11.195 3.47817 11.1935 3.48136 11.1905ZM11.8063 16.215C11.4763 17.015 10.5563 17.385 9.75628 17.055L8.53627 16.555C8.74627 17.005 9.12628 17.385 9.62628 17.595C10.7063 18.045 11.9763 17.525 12.4063 16.445C12.6263 15.925 12.6263 15.345 12.4063 14.825C12.1963 14.295 11.7863 13.885 11.2563 13.675C10.7363 13.455 10.1863 13.465 9.69628 13.645L10.9763 14.175C11.7563 14.505 12.1363 15.415 11.8063 16.215ZM16.7563 11.825C18.1463 11.825 19.2763 10.695 19.2763 9.30497C19.2763 7.92497 18.1463 6.79497 16.7563 6.79497C16.4263 6.79365 16.0993 6.85767 15.7942 6.98334C15.4891 7.10901 15.2118 7.29385 14.9785 7.52719C14.7452 7.76052 14.5603 8.03775 14.4347 8.34287C14.309 8.648 14.245 8.97498 14.2463 9.30497C14.2463 10.695 15.3763 11.825 16.7563 11.825Z" fill="#acacac"/>
<path d="M18.4507 9.28659C18.4507 10.2277 17.6878 10.9906 16.7467 10.9906C15.8056 10.9906 15.0427 10.2277 15.0427 9.28659C15.0427 8.3455 15.8056 7.58259 16.7467 7.58259C17.6878 7.58259 18.4507 8.3455 18.4507 9.28659Z" fill="#fff"/>
</svg>
