<svg width="24" height="24" viewBox="0 0 22 17" fill="#1da1f2" xmlns="http://www.w3.org/2000/svg">
<path d="M6.91077 17C15.2125 17 19.7551 10.4577 19.7551 4.7938C19.7551 4.62834 19.7551 4.46288 19.7487 4.29742C19.7474 4.26274 19.7638 4.22973 19.7923 4.20995C20.6533 3.61267 21.4032 2.86291 22 2.01624C21.1901 2.35925 20.3185 2.58514 19.403 2.6939C20.3361 2.16683 21.0492 1.32185 21.3926 0.317913C20.5357 0.803177 19.5853 1.15098 18.5748 1.34543C18.5422 1.3517 18.5087 1.34114 18.4851 1.31783C17.6599 0.503234 16.5048 0 15.2301 0C12.7387 0 10.7139 1.92421 10.7139 4.29183C10.7139 4.58174 10.7469 4.86537 10.8015 5.14271C10.8143 5.20735 10.7633 5.26763 10.6975 5.26391C7.05088 5.05777 3.81338 3.39574 1.61322 0.8903C1.5684 0.839256 1.48677 0.845958 1.45332 0.905086C1.10937 1.51317 0.915566 2.20692 0.915566 2.94488C0.915566 4.30688 1.5857 5.52191 2.62287 6.30836C2.70395 6.36984 2.65939 6.50219 2.55824 6.49107C2.01272 6.43114 1.49637 6.28006 1.02804 6.05577C0.960263 6.02331 0.880656 6.07209 0.883815 6.14717C0.963181 8.03319 2.39727 9.37857 4.207 10.1332C4.29692 10.1707 4.28868 10.2998 4.19298 10.3179C3.90818 10.3721 3.6139 10.3991 3.31012 10.3991C3.07861 10.3991 2.85269 10.3832 2.63235 10.3513C2.55697 10.3404 2.49505 10.4123 2.52224 10.4835C3.11077 12.0235 4.60664 13.1487 6.38884 13.2882C6.48395 13.2957 6.52229 13.419 6.44401 13.4736C4.93542 14.5243 3.08012 15.1427 1.07403 15.1427C0.713086 15.1427 0.352141 15.126 0 15.0842C1.9896 16.2889 4.36655 17 6.91077 17Z" fill="#1da1f2"/>
</svg>
