<?xml version="1.0" encoding="UTF-8" standalone="no"?>
<!-- Created with Inkscape (http://www.inkscape.org/) -->

<svg
   xmlns:dc="http://purl.org/dc/elements/1.1/"
   xmlns:cc="http://creativecommons.org/ns#"
   xmlns:rdf="http://www.w3.org/1999/02/22-rdf-syntax-ns#"
   xmlns:svg="http://www.w3.org/2000/svg"
   xmlns="http://www.w3.org/2000/svg"
   xmlns:sodipodi="http://sodipodi.sourceforge.net/DTD/sodipodi-0.dtd"
   xmlns:inkscape="http://www.inkscape.org/namespaces/inkscape"
   width="1920"
   height="1122.5197"
   viewBox="0 0 507.99999 297"
   version="1.1"
   id="svg4712"
   sodipodi:docname="bg.svg"
   inkscape:version="0.92.4 (5da689c313, 2019-01-14)">
  <defs
     id="defs4706" />
  <sodipodi:namedview
     id="base"
     pagecolor="#ffffff"
     bordercolor="#666666"
     borderopacity="1.0"
     inkscape:pageopacity="0.0"
     inkscape:pageshadow="2"
     inkscape:zoom="0.175"
     inkscape:cx="336.67185"
     inkscape:cy="915.67293"
     inkscape:document-units="mm"
     inkscape:current-layer="layer1"
     showgrid="false"
     units="px"
     inkscape:pagecheckerboard="true"
     inkscape:window-width="1332"
     inkscape:window-height="738"
     inkscape:window-x="291"
     inkscape:window-y="119"
     inkscape:window-maximized="0" />
  <metadata
     id="metadata4709">
    <rdf:RDF>
      <cc:Work
         rdf:about="">
        <dc:format>image/svg+xml</dc:format>
        <dc:type
           rdf:resource="http://purl.org/dc/dcmitype/StillImage" />
        <dc:title />
      </cc:Work>
    </rdf:RDF>
  </metadata>
  <g
     inkscape:label="Layer 1"
     inkscape:groupmode="layer"
     id="layer1"
     transform="translate(0,8.392334e-6)">
    <g
       id="Square_Right"
       data-name="Square Right"
       style="opacity:0.04;fill:#ffffff;fill-opacity:1"
       transform="matrix(0.23664638,0,0,0.2223654,39.397238,19.306572)">
      <path
         id="Path_1"
         data-name="Path 1"
         class="cls-1"
         d="m 1755.7145,918.92101 36.0942,36.40847 36.094,-36.40847 -36.094,-36.40715 z"
         style="opacity:1;fill:#ffffff;fill-opacity:1;stroke-width:1.2087779"
         inkscape:connector-curvature="0" />
    </g>
    <g
       id="Circle_Right"
       data-name="Circle Right"
       style="opacity:0.04;fill:#ffffff;fill-opacity:1"
       transform="matrix(0.26391225,0,0,0.24798586,7.452049,-47.751998)">
      <path
         id="Path_2"
         data-name="Path 2"
         class="cls-1"
         d="m 1604.5434,943.33711 a 25.950774,25.950774 0 1 0 25.7334,25.94977 25.842574,25.842574 0 0 0 -25.7334,-25.94977 z"
         style="opacity:1;fill:#ffffff;fill-opacity:1;stroke-width:0.97475022"
         inkscape:connector-curvature="0" />
    </g>
    <g
       id="Square_Left"
       data-name="Square Left"
       style="opacity:0.04;fill:#ffffff;fill-opacity:1"
       transform="matrix(0.1427101,0,0,0.13409794,80.267894,74.670525)">
      <path
         id="Path_3"
         data-name="Path 3"
         class="cls-1"
         d="m 165.40644,931.33593 70.36191,70.96737 70.36194,-70.96737 -70.36194,-70.96599 z"
         style="opacity:1;fill:#ffffff;fill-opacity:1;stroke-width:1.36978841"
         inkscape:connector-curvature="0" />
    </g>
    <g
       id="Circle_Left"
       data-name="Circle Left"
       style="opacity:0.04;fill:#ffffff;fill-opacity:1"
       transform="matrix(0.11224786,0,0,0.10547401,112.22311,106.31297)">
      <path
         id="Path_4"
         data-name="Path 4"
         class="cls-1"
         d="m 618.72918,1111.9808 a 50.486115,50.486115 0 1 0 50.06323,50.4842 50.269935,50.269935 0 0 0 -50.06323,-50.4842 z"
         style="opacity:1;fill:#ffffff;fill-opacity:1;stroke-width:1.89633453"
         inkscape:connector-curvature="0" />
    </g>
    <g
       id="Wave_Left"
       data-name="Wave Left"
       transform="matrix(0.17691936,0,0,0.16624276,68.422544,-40.509997)"
       style="opacity:0.04;fill:#ffffff;fill-opacity:1">
      <path
         id="Path_5"
         data-name="Path 5"
         class="cls-2"
         d="m -16.769718,2018.9385 -212.982242,42.055 -419.86136,-699.2658 212.98342,-42.056 c 32.50383,-6.4198 67.93777,3.4886 79.13194,22.1325 6.34123,10.5607 3.69806,22.2131 -7.1437,31.4928 -43.15388,36.9437 -25.91377,86.9531 38.5081,111.7012 a 198.3567,198.3567 0 0 0 34.32548,9.6011 l 7.26276,1.3669 c 66.38282,12.5016 102.5216,53.5016 80.71785,91.5704 a 72.012056,72.012056 0 0 1 -19.42968,21.2274 c -42.24902,31.9158 -31.38345,77.4282 24.26834,101.6549 a 173.64308,173.64308 0 0 0 37.01865,11.1442 l 14.52552,2.7384 c 66.382829,12.5013 102.522792,53.5014 80.717851,91.5702 a 72.014437,72.014437 0 0 1 -19.432057,21.2299 c -42.249034,31.9157 -31.383474,77.4282 24.268343,101.6548 a 173.6788,173.6788 0 0 0 37.019832,11.1442 l 7.262767,1.3668 c 32.666935,6.1532 50.447596,26.3269 39.71896,45.0602 -6.078102,10.6059 -20.4655157,18.9748 -38.880774,22.6109 z"
         style="opacity:1;fill:#ffffff;fill-opacity:1;fill-rule:evenodd;stroke-width:1.19061649"
         inkscape:connector-curvature="0" />
    </g>
    <g
       id="Wave_right"
       data-name="Wave right"
       transform="matrix(0.11401239,0,0,0.1471985,250.62528,49.627297)"
       style="opacity:0.04;fill:#ffffff;fill-opacity:1">
      <path
         id="Path_6"
         data-name="Path 6"
         class="cls-2"
         d="m 2181.484,-11.750902 c 0,0 127.8218,-38.958993 209.3269,3.240117 81.5048,42.199087 81.9114,916.353515 -23.8393,933.395155 -105.7505,17.04163 -209.2929,-3.24012 -209.2929,-3.24012 a 58.321768,44.744646 0 0 1 -56.6775,-45.95625 59.022654,45.282368 0 0 1 23.7719,-35.54305 c 58.2747,-33.02851 71.1442,-96.59513 28.7296,-141.97919 a 131.22061,100.67287 0 0 0 -24.5874,-19.93536 l -5.5688,-3.42969 a 120.60848,92.531211 0 0 1 -19.3192,-128.64471 117.769,90.352748 0 0 1 28.7969,-20.31451 c 54.6735,-27.29455 70.5669,-83.9449 35.5205,-126.52833 a 118.13292,90.631949 0 0 0 -26.0809,-22.43264 l -11.138,-6.85939 a 120.60848,92.531211 0 0 1 -19.3193,-128.64474 117.69037,90.292427 0 0 1 28.7971,-20.31796 c 54.6736,-27.29454 70.567,-83.94144 35.5228,-126.526601 a 118.07676,90.588863 0 0 0 -26.0811,-22.432615 l -5.569,-3.433159 a 59.368605,45.54778 0 0 1 -9.5091,-63.3012365 57.50856,44.120751 0 0 1 46.5168,-17.1157205 z"
         style="opacity:1;fill:#ffffff;fill-opacity:1;fill-rule:evenodd;stroke-width:1.96764934"
         inkscape:connector-curvature="0" />
    </g>
    <g
       id="Dots_Right"
       data-name="Dots Right"
       style="opacity:0.04;fill:#ffffff;fill-opacity:1"
       transform="matrix(0.27663782,0,0,0.25994347,0.2207276,-36.16568)">
      <path
         id="Path_7"
         data-name="Path 7"
         class="cls-3"
         d="m 1190.74,628.75 a 4.776,4.776 0 1 0 4.74,4.776 4.754,4.754 0 0 0 -4.74,-4.776 z"
         transform="translate(96.22,381.515)"
         style="fill:#ffffff;fill-opacity:1;fill-rule:evenodd"
         inkscape:connector-curvature="0" />
      <path
         id="Path_8"
         data-name="Path 8"
         class="cls-3"
         d="m 1223.36,628.75 a 4.776,4.776 0 1 0 4.74,4.776 4.754,4.754 0 0 0 -4.74,-4.776 z"
         transform="translate(98.634,381.515)"
         style="fill:#ffffff;fill-opacity:1;fill-rule:evenodd"
         inkscape:connector-curvature="0" />
      <path
         id="Path_9"
         data-name="Path 9"
         class="cls-3"
         d="m 1255.99,628.75 a 4.776,4.776 0 1 0 4.73,4.776 4.757,4.757 0 0 0 -4.73,-4.776 z"
         transform="translate(101.048,381.515)"
         style="fill:#ffffff;fill-opacity:1;fill-rule:evenodd"
         inkscape:connector-curvature="0" />
      <path
         id="Path_10"
         data-name="Path 10"
         class="cls-3"
         d="m 1288.61,628.75 a 4.776,4.776 0 1 0 4.74,4.776 4.757,4.757 0 0 0 -4.74,-4.776 z"
         transform="translate(103.463,381.515)"
         style="fill:#ffffff;fill-opacity:1;fill-rule:evenodd"
         inkscape:connector-curvature="0" />
      <path
         id="Path_11"
         data-name="Path 11"
         class="cls-3"
         d="m 1158.12,628.75 a 4.776,4.776 0 1 0 4.73,4.776 4.757,4.757 0 0 0 -4.73,-4.776 z"
         transform="translate(93.805,381.515)"
         style="fill:#ffffff;fill-opacity:1;fill-rule:evenodd"
         inkscape:connector-curvature="0" />
      <path
         id="Path_12"
         data-name="Path 12"
         class="cls-3"
         d="m 1125.49,628.75 a 4.776,4.776 0 1 0 4.74,4.776 4.754,4.754 0 0 0 -4.74,-4.776 z"
         transform="translate(91.391,381.515)"
         style="fill:#ffffff;fill-opacity:1;fill-rule:evenodd"
         inkscape:connector-curvature="0" />
      <path
         id="Path_13"
         data-name="Path 13"
         class="cls-3"
         d="m 1092.87,628.75 a 4.776,4.776 0 1 0 4.74,4.776 4.754,4.754 0 0 0 -4.74,-4.776 z"
         transform="translate(88.977,381.515)"
         style="fill:#ffffff;fill-opacity:1;fill-rule:evenodd"
         inkscape:connector-curvature="0" />
      <path
         id="Path_14"
         data-name="Path 14"
         class="cls-3"
         d="m 1190.74,595.846 a 4.777,4.777 0 1 0 4.74,4.776 4.754,4.754 0 0 0 -4.74,-4.776 z"
         transform="translate(96.22,302.671)"
         style="fill:#ffffff;fill-opacity:1;fill-rule:evenodd"
         inkscape:connector-curvature="0" />
      <path
         id="Path_15"
         data-name="Path 15"
         class="cls-3"
         d="m 1223.36,595.846 a 4.777,4.777 0 1 0 4.74,4.776 4.754,4.754 0 0 0 -4.74,-4.776 z"
         transform="translate(98.634,302.671)"
         style="fill:#ffffff;fill-opacity:1;fill-rule:evenodd"
         inkscape:connector-curvature="0" />
      <path
         id="Path_16"
         data-name="Path 16"
         class="cls-3"
         d="m 1255.99,595.846 a 4.777,4.777 0 1 0 4.73,4.776 4.757,4.757 0 0 0 -4.73,-4.776 z"
         transform="translate(101.048,302.671)"
         style="fill:#ffffff;fill-opacity:1;fill-rule:evenodd"
         inkscape:connector-curvature="0" />
      <path
         id="Path_17"
         data-name="Path 17"
         class="cls-3"
         d="m 1288.61,595.846 a 4.777,4.777 0 1 0 4.74,4.776 4.757,4.757 0 0 0 -4.74,-4.776 z"
         transform="translate(103.463,302.671)"
         style="fill:#ffffff;fill-opacity:1;fill-rule:evenodd"
         inkscape:connector-curvature="0" />
      <path
         id="Path_18"
         data-name="Path 18"
         class="cls-3"
         d="m 1158.12,595.846 a 4.777,4.777 0 1 0 4.73,4.776 4.757,4.757 0 0 0 -4.73,-4.776 z"
         transform="translate(93.805,302.671)"
         style="fill:#ffffff;fill-opacity:1;fill-rule:evenodd"
         inkscape:connector-curvature="0" />
      <path
         id="Path_19"
         data-name="Path 19"
         class="cls-3"
         d="m 1125.49,595.846 a 4.777,4.777 0 1 0 4.74,4.776 4.754,4.754 0 0 0 -4.74,-4.776 z"
         transform="translate(91.391,302.671)"
         style="fill:#ffffff;fill-opacity:1;fill-rule:evenodd"
         inkscape:connector-curvature="0" />
      <path
         id="Path_20"
         data-name="Path 20"
         class="cls-3"
         d="m 1092.87,595.846 a 4.777,4.777 0 1 0 4.74,4.776 4.754,4.754 0 0 0 -4.74,-4.776 z"
         transform="translate(88.977,302.671)"
         style="fill:#ffffff;fill-opacity:1;fill-rule:evenodd"
         inkscape:connector-curvature="0" />
      <path
         id="Path_21"
         data-name="Path 21"
         class="cls-3"
         d="m 1190.74,562.942 a 4.777,4.777 0 1 0 4.74,4.777 4.755,4.755 0 0 0 -4.74,-4.777 z"
         transform="translate(96.22,284.437)"
         style="fill:#ffffff;fill-opacity:1;fill-rule:evenodd"
         inkscape:connector-curvature="0" />
      <path
         id="Path_22"
         data-name="Path 22"
         class="cls-3"
         d="m 1223.36,562.942 a 4.777,4.777 0 1 0 4.74,4.777 4.755,4.755 0 0 0 -4.74,-4.777 z"
         transform="translate(98.634,284.437)"
         style="fill:#ffffff;fill-opacity:1;fill-rule:evenodd"
         inkscape:connector-curvature="0" />
      <path
         id="Path_23"
         data-name="Path 23"
         class="cls-3"
         d="m 1255.99,562.942 a 4.777,4.777 0 1 0 4.73,4.777 4.757,4.757 0 0 0 -4.73,-4.777 z"
         transform="translate(101.048,284.437)"
         style="fill:#ffffff;fill-opacity:1;fill-rule:evenodd"
         inkscape:connector-curvature="0" />
      <path
         id="Path_24"
         data-name="Path 24"
         class="cls-3"
         d="m 1288.61,562.942 a 4.777,4.777 0 1 0 4.74,4.777 4.757,4.757 0 0 0 -4.74,-4.777 z"
         transform="translate(103.463,284.437)"
         style="fill:#ffffff;fill-opacity:1;fill-rule:evenodd"
         inkscape:connector-curvature="0" />
      <path
         id="Path_25"
         data-name="Path 25"
         class="cls-3"
         d="m 1158.12,562.942 a 4.777,4.777 0 1 0 4.73,4.777 4.757,4.757 0 0 0 -4.73,-4.777 z"
         transform="translate(93.805,284.437)"
         style="fill:#ffffff;fill-opacity:1;fill-rule:evenodd"
         inkscape:connector-curvature="0" />
      <path
         id="Path_26"
         data-name="Path 26"
         class="cls-3"
         d="m 1125.49,562.942 a 4.777,4.777 0 1 0 4.74,4.777 4.755,4.755 0 0 0 -4.74,-4.777 z"
         transform="translate(91.391,284.437)"
         style="fill:#ffffff;fill-opacity:1;fill-rule:evenodd"
         inkscape:connector-curvature="0" />
      <path
         id="Path_27"
         data-name="Path 27"
         class="cls-3"
         d="m 1092.87,562.942 a 4.777,4.777 0 1 0 4.74,4.777 4.755,4.755 0 0 0 -4.74,-4.777 z"
         transform="translate(88.977,284.437)"
         style="fill:#ffffff;fill-opacity:1;fill-rule:evenodd"
         inkscape:connector-curvature="0" />
    </g>
    <g
       id="Dots_Left"
       data-name="Dots Left"
       style="opacity:0.04;fill:#ffffff;fill-opacity:1"
       transform="matrix(0.22291153,0,0,0.20945943,25.85719,-9.17388)">
      <path
         id="Path_28"
         data-name="Path 28"
         class="cls-3"
         d="m 11.05,247.086 a 4.777,4.777 0 1 0 4.736,4.777 4.757,4.757 0 0 0 -4.736,-4.777 z"
         transform="translate(0,109.403)"
         style="fill:#ffffff;fill-opacity:1;fill-rule:evenodd"
         inkscape:connector-curvature="0" />
      <path
         id="Path_29"
         data-name="Path 29"
         class="cls-3"
         d="m 43.673,247.086 a 4.777,4.777 0 1 0 4.736,4.777 4.757,4.757 0 0 0 -4.736,-4.777 z"
         transform="translate(0,109.403)"
         style="fill:#ffffff;fill-opacity:1;fill-rule:evenodd"
         inkscape:connector-curvature="0" />
      <path
         id="Path_30"
         data-name="Path 30"
         class="cls-3"
         d="m 76.3,247.086 a 4.777,4.777 0 1 0 4.736,4.777 4.757,4.757 0 0 0 -4.736,-4.777 z"
         transform="translate(0,109.403)"
         style="fill:#ffffff;fill-opacity:1;fill-rule:evenodd"
         inkscape:connector-curvature="0" />
      <path
         id="Path_31"
         data-name="Path 31"
         class="cls-3"
         d="m 11.05,214.183 a 4.776,4.776 0 1 0 4.736,4.776 4.756,4.756 0 0 0 -4.736,-4.776 z"
         transform="translate(0,91.169)"
         style="fill:#ffffff;fill-opacity:1;fill-rule:evenodd"
         inkscape:connector-curvature="0" />
      <path
         id="Path_32"
         data-name="Path 32"
         class="cls-3"
         d="m 43.673,214.183 a 4.776,4.776 0 1 0 4.736,4.776 4.756,4.756 0 0 0 -4.736,-4.776 z"
         transform="translate(0,91.169)"
         style="fill:#ffffff;fill-opacity:1;fill-rule:evenodd"
         inkscape:connector-curvature="0" />
      <path
         id="Path_33"
         data-name="Path 33"
         class="cls-3"
         d="m 76.3,214.183 a 4.776,4.776 0 1 0 4.736,4.776 4.756,4.756 0 0 0 -4.736,-4.776 z"
         transform="translate(0,91.169)"
         style="fill:#ffffff;fill-opacity:1;fill-rule:evenodd"
         inkscape:connector-curvature="0" />
      <path
         id="Path_34"
         data-name="Path 34"
         class="cls-3"
         d="m 11.05,181.279 a 4.777,4.777 0 1 0 4.736,4.776 4.756,4.756 0 0 0 -4.736,-4.776 z"
         transform="translate(0,54.706)"
         style="fill:#ffffff;fill-opacity:1;fill-rule:evenodd"
         inkscape:connector-curvature="0" />
      <path
         id="Path_35"
         data-name="Path 35"
         class="cls-3"
         d="m 43.673,181.279 a 4.777,4.777 0 1 0 4.736,4.776 4.756,4.756 0 0 0 -4.736,-4.776 z"
         transform="translate(0,54.706)"
         style="fill:#ffffff;fill-opacity:1;fill-rule:evenodd"
         inkscape:connector-curvature="0" />
      <path
         id="Path_36"
         data-name="Path 36"
         class="cls-3"
         d="m 76.3,181.279 a 4.777,4.777 0 1 0 4.736,4.776 4.756,4.756 0 0 0 -4.736,-4.776 z"
         transform="translate(0,54.706)"
         style="fill:#ffffff;fill-opacity:1;fill-rule:evenodd"
         inkscape:connector-curvature="0" />
      <path
         id="Path_37"
         data-name="Path 37"
         class="cls-3"
         d="m 11.05,148.375 a 4.777,4.777 0 1 0 4.736,4.777 4.757,4.757 0 0 0 -4.736,-4.777 z"
         style="fill:#ffffff;fill-opacity:1;fill-rule:evenodd"
         inkscape:connector-curvature="0" />
      <path
         id="Path_38"
         data-name="Path 38"
         class="cls-3"
         d="m 43.673,148.375 a 4.777,4.777 0 1 0 4.736,4.777 4.757,4.757 0 0 0 -4.736,-4.777 z"
         style="fill:#ffffff;fill-opacity:1;fill-rule:evenodd"
         inkscape:connector-curvature="0" />
      <path
         id="Path_39"
         data-name="Path 39"
         class="cls-3"
         d="m 76.3,148.375 a 4.777,4.777 0 1 0 4.736,4.777 4.757,4.757 0 0 0 -4.736,-4.777 z"
         style="fill:#ffffff;fill-opacity:1;fill-rule:evenodd"
         inkscape:connector-curvature="0" />
      <path
         id="Path_40"
         data-name="Path 40"
         class="cls-3"
         d="m 11.05,115.472 a 4.776,4.776 0 1 0 4.736,4.776 4.756,4.756 0 0 0 -4.736,-4.776 z"
         style="fill:#ffffff;fill-opacity:1;fill-rule:evenodd"
         inkscape:connector-curvature="0" />
      <path
         id="Path_41"
         data-name="Path 41"
         class="cls-3"
         d="m 43.673,115.472 a 4.776,4.776 0 1 0 4.736,4.776 4.756,4.756 0 0 0 -4.736,-4.776 z"
         style="fill:#ffffff;fill-opacity:1;fill-rule:evenodd"
         inkscape:connector-curvature="0" />
      <path
         id="Path_42"
         data-name="Path 42"
         class="cls-3"
         d="m 76.3,115.472 a 4.776,4.776 0 1 0 4.736,4.776 4.756,4.756 0 0 0 -4.736,-4.776 z"
         style="fill:#ffffff;fill-opacity:1;fill-rule:evenodd"
         inkscape:connector-curvature="0" />
      <path
         id="Path_43"
         data-name="Path 43"
         class="cls-3"
         d="m 11.05,82.568 a 4.776,4.776 0 1 0 4.736,4.776 4.756,4.756 0 0 0 -4.736,-4.776 z"
         style="fill:#ffffff;fill-opacity:1;fill-rule:evenodd"
         inkscape:connector-curvature="0" />
      <path
         id="Path_44"
         data-name="Path 44"
         class="cls-3"
         d="m 43.673,82.568 a 4.776,4.776 0 1 0 4.736,4.776 4.756,4.756 0 0 0 -4.736,-4.776 z"
         style="fill:#ffffff;fill-opacity:1;fill-rule:evenodd"
         inkscape:connector-curvature="0" />
      <path
         id="Path_45"
         data-name="Path 45"
         class="cls-3"
         d="M 76.3,82.568 A 4.776,4.776 0 1 0 81.036,87.344 4.756,4.756 0 0 0 76.3,82.568 Z"
         style="fill:#ffffff;fill-opacity:1;fill-rule:evenodd"
         inkscape:connector-curvature="0" />
      <path
         id="Path_46"
         data-name="Path 46"
         class="cls-3"
         d="m 11.05,49.665 a 4.777,4.777 0 1 0 4.736,4.776 4.756,4.756 0 0 0 -4.736,-4.776 z"
         style="fill:#ffffff;fill-opacity:1;fill-rule:evenodd"
         inkscape:connector-curvature="0" />
      <path
         id="Path_47"
         data-name="Path 47"
         class="cls-3"
         d="m 43.673,49.665 a 4.777,4.777 0 1 0 4.736,4.776 4.756,4.756 0 0 0 -4.736,-4.776 z"
         style="fill:#ffffff;fill-opacity:1;fill-rule:evenodd"
         inkscape:connector-curvature="0" />
      <path
         id="Path_48"
         data-name="Path 48"
         class="cls-3"
         d="M 76.3,49.665 A 4.777,4.777 0 1 0 81.036,54.441 4.756,4.756 0 0 0 76.3,49.665 Z"
         style="fill:#ffffff;fill-opacity:1;fill-rule:evenodd"
         inkscape:connector-curvature="0" />
    </g>
  </g>
</svg>
